<svg width="24" height="24" viewBox="0 0 24 24" fill="none" xmlns="http://www.w3.org/2000/svg">
<path fill-rule="evenodd" clip-rule="evenodd" d="M12 24C18.6274 24 24 18.6274 24 12C24 5.37258 18.6274 0 12 0C5.37258 0 0 5.37258 0 12C0 18.6274 5.37258 24 12 24ZM13.1976 7.66423C11.0502 8.5918 4.85832 11.226 4.85832 11.226C3.39089 11.8197 4.24983 12.3762 4.24983 12.3762C4.24983 12.3762 5.50252 12.8215 6.57629 13.1553C7.65001 13.4893 8.22268 13.1183 8.22268 13.1183C8.22268 13.1183 10.7281 11.4116 13.2692 9.59353C15.0587 8.33208 14.6293 9.37093 14.1998 9.81618C13.2692 10.7808 11.7302 12.302 10.4417 13.5264C9.86907 14.0458 10.1554 14.491 10.4059 14.7136C11.1346 15.3528 12.8508 16.5152 13.6299 17.0429C13.8458 17.1891 13.9898 17.2866 14.0208 17.3108C14.1998 17.4592 15.202 18.127 15.8104 17.9786C16.4188 17.8302 16.4904 16.9769 16.4904 16.9769C16.4904 16.9769 16.9557 13.9345 17.3852 11.1518C17.4648 10.6055 17.5443 10.0705 17.6185 9.57177C17.8113 8.2754 17.9678 7.2231 17.9936 6.84798C18.101 5.58653 16.8125 6.10593 16.8125 6.10593C16.8125 6.10593 14.0208 7.29323 13.1976 7.66423Z" fill="#1C1B1F"/>
</svg>
