<svg width="89" height="24" viewBox="0 0 89 24" fill="currentColor" xmlns="http://www.w3.org/2000/svg">
    <path d="M0 2.23999C0 1.00288 1.00579 0 2.2465 0H10.4256C11.8792 0 13.1513 0.974115 13.5263 2.37439L18.7506 21.8815C18.8474 22.2432 19.3816 22.1733 19.3816 21.799V0H25.8001V21.7599C25.8001 22.997 24.7943 23.9999 23.5536 23.9999H15.314C13.8643 23.9999 12.5946 23.0308 12.216 21.6355L7.04928 2.5892C6.95141 2.22844 6.41855 2.29902 6.41855 2.67275V23.9999H0V2.23999Z"/>
    <path d="M55.5159 2.45228e-05C54.2752 2.52007e-05 53.2694 1.0029 53.2694 2.24002V23.9999H59.6879V2.68233C59.6879 2.29548 60.2483 2.24066 60.3237 2.62013L64.0601 21.4219C64.3579 22.9203 65.6762 23.9999 67.2082 23.9999L74.6942 23.9999C76.2294 23.9999 77.5496 22.9158 77.8439 21.4135L81.5171 2.66662C81.5916 2.28643 82.153 2.34061 82.153 2.72798V23.9999H88.5714V2.24002C88.5714 1.0029 87.5656 2.5199e-05 86.3249 2.45188e-05L78.3813 2.01644e-05C76.859 1.93299e-05 75.5461 1.06646 75.2383 2.55306L71.2361 21.8844C71.1655 22.2251 70.6773 22.2246 70.6074 21.8838L66.6405 2.55837C66.3349 1.06926 65.0208 1.93293e-05 63.4964 2.01623e-05L55.5159 2.45228e-05Z"/>
    <path d="M26.5569 9.04583e-05H33.3531L39.2253 12.5169C39.4563 13.0093 40.1589 13.0085 40.3888 12.5155L46.2237 9.04583e-05H53.1458L41.8949 24H34.9858L39.4713 14.4H35.3564C34.1107 14.4 32.9775 13.6813 32.4496 12.5563L26.5569 9.04583e-05Z"/>
</svg>
